<svg width="512" height="512" viewBox="0 0 512 512" xmlns="http://www.w3.org/2000/svg">
  <defs>
    <linearGradient id="bgGrad" x1="0%" y1="0%" x2="100%" y2="100%">
      <stop offset="0%" style="stop-color:#3f574f;stop-opacity:1" />
      <stop offset="100%" style="stop-color:#243630;stop-opacity:1" />
    </linearGradient>
    <linearGradient id="boardGrad" x1="0%" y1="0%" x2="100%" y2="100%">
      <stop offset="0%" style="stop-color:#f3e0bf;stop-opacity:1" />
      <stop offset="100%" style="stop-color:#dcc19a;stop-opacity:1" />
    </linearGradient>
    <linearGradient id="centerGrad" x1="0%" y1="0%" x2="100%" y2="100%">
      <stop offset="0%" style="stop-color:#ca8151;stop-opacity:1" />
      <stop offset="100%" style="stop-color:#9f4f32;stop-opacity:1" />
    </linearGradient>
    <radialGradient id="glowGrad" cx="50%" cy="40%" r="60%">
      <stop offset="0%" style="stop-color:#f0c178;stop-opacity:0.28" />
      <stop offset="100%" style="stop-color:#f0c178;stop-opacity:0" />
    </radialGradient>
  </defs>

  <rect width="512" height="512" rx="112" fill="url(#bgGrad)"/>

  <g transform="translate(256, 256)">
    <circle cx="0" cy="0" r="198" fill="url(#glowGrad)"/>

    <rect x="-128" y="-128" width="256" height="256" rx="62" fill="url(#boardGrad)" opacity="0.97"/>
    <rect x="-128" y="-128" width="256" height="256" rx="62" fill="none" stroke="#8f6d4d" stroke-width="6"/>

    <path d="M 0,-96 L 18,-29 L 85,-56 L 29,0 L 85,56 L 18,29 L 0,96 L -18,29 L -85,56 L -29,0 L -85,-56 L -18,-29 Z"
          fill="none" stroke="#b98b54" stroke-width="12" stroke-linejoin="round" stroke-linecap="round"/>

    <path d="M 0,-74 L 14,-22 L 66,-43 L 22,0 L 66,43 L 14,22 L 0,74 L -14,22 L -66,43 L -22,0 L -66,-43 L -14,-22 Z"
          fill="#e7c78f" opacity="0.65"/>

    <circle cx="0" cy="0" r="35" fill="url(#centerGrad)" stroke="#f6e6cd" stroke-width="5"/>
  </g>
</svg>
